<?xml version="1.0" encoding="utf-8"?>
<!-- Generator: Adobe Illustrator 18.1.0, SVG Export Plug-In . SVG Version: 6.00 Build 0)  -->
<!DOCTYPE svg PUBLIC "-//W3C//DTD SVG 1.1//EN" "http://www.w3.org/Graphics/SVG/1.1/DTD/svg11.dtd">
<svg version="1.1" id="Layer_1" xmlns="http://www.w3.org/2000/svg" xmlns:xlink="http://www.w3.org/1999/xlink" x="0px" y="0px"
	 viewBox="94 150 500 500" enable-background="new 94 150 500 500" xml:space="preserve">
<g>
	<path d="M344,150L129,275v250l215,125l215-125V275L344,150z M269,478h-34V322h34V478z M394.5,482.6c-45.5,0-82.9-37.1-82.9-82.6
		c0-45.5,37.3-82.6,82.9-82.6c45.4,0,83.2,36.8,83.2,82.6C477.7,445.4,440,482.6,394.5,482.6z"/>
	<path d="M394.5,351c-27,0-48,21.7-48,49c0,27,21,49,48,49c27.2,0,48.5-22,48.5-49C443.1,372.8,421.8,351,394.5,351z"/>
</g>
</svg>
