<?xml version="1.0" encoding="utf-8"?>
<!-- Generator: Adobe Illustrator 18.1.0, SVG Export Plug-In . SVG Version: 6.00 Build 0)  -->
<!DOCTYPE svg PUBLIC "-//W3C//DTD SVG 1.1//EN" "http://www.w3.org/Graphics/SVG/1.1/DTD/svg11.dtd">
<svg version="1.1" id="Layer_1" xmlns="http://www.w3.org/2000/svg" xmlns:xlink="http://www.w3.org/1999/xlink" x="0px" y="0px"
	 viewBox="982 150 500 500" enable-background="new 982 150 500 500" xml:space="preserve">
<polygon fill="#F0D95A" points="1017,275 1232,150 1447,275 1447,525 1232,650 1017,525 "/>
<path d="M1282.5,482.6c-45.5,0-82.9-37.1-82.9-82.6c0-45.5,37.3-82.6,82.9-82.6c45.4,0,83.2,36.8,83.2,82.6
	C1365.7,445.4,1328,482.6,1282.5,482.6z M1282.5,351c-27,0-48,21.7-48,49c0,27,21,49,48,49c27.2,0,48.5-22,48.5-49
	C1331.1,372.8,1309.8,351,1282.5,351z"/>
<path d="M1123,478V322h34v156H1123z"/>
</svg>
